<svg width="31" height="32" viewBox="0 0 31 32" fill="none" xmlns="http://www.w3.org/2000/svg" id="svg81889009_1815">
    <g clip-path="url(#svg81889009_1815_clip0_630_2676)">
    <path fill-rule="evenodd" clip-rule="evenodd" d="M29.5806 20.2226C27.5769 28.5271 19.4371 33.5811 11.3996 31.5102C3.36527 29.4398 -1.52572 21.0282 0.478867 12.7241C2.48158 4.41866 10.6214 -0.635851 18.6566 1.43459C26.6937 3.50503 31.5842 11.9176 29.5806 20.2226ZM21.6438 14.2641C21.9424 12.2015 20.4226 11.0926 18.3444 10.3529L19.0185 7.55871L17.3725 7.13484L16.7162 9.85538C16.2835 9.74396 15.8391 9.63884 15.3975 9.53468L16.0585 6.79622L14.4135 6.37235L13.7389 9.16555C13.3807 9.08126 13.0291 8.99794 12.6878 8.91026L12.6897 8.90154L10.4198 8.31587L9.98191 10.1325C9.98191 10.1325 11.2031 10.4217 11.1774 10.4396C11.844 10.6116 11.9645 11.0674 11.9443 11.4288L11.1764 14.612C11.2224 14.6241 11.2819 14.6415 11.3475 14.6686C11.2927 14.6546 11.2341 14.6391 11.1736 14.6241L10.0972 19.0832C10.0157 19.2925 9.80892 19.6064 9.34294 19.4872C9.35934 19.5119 8.14656 19.1786 8.14656 19.1786L7.32944 21.1256L9.47139 21.6773C9.86987 21.7805 10.2604 21.8885 10.6448 21.9903L9.96363 24.8164L11.6077 25.2403L12.2823 22.4442C12.7314 22.5701 13.1674 22.6864 13.594 22.7959L12.9218 25.5789L14.5677 26.0028L15.2489 23.1819C18.0556 23.7308 20.1661 23.5094 21.0545 20.8863C21.7704 18.7742 21.0189 17.5558 19.5421 16.7614C20.6176 16.5051 21.4277 15.7741 21.6438 14.2641ZM17.8831 19.7135C17.3744 21.8256 13.933 20.6838 12.8172 20.3975L13.7211 16.6533C14.8368 16.9411 18.4147 17.5108 17.8831 19.7135ZM18.3922 14.2336C17.9281 16.1549 15.0637 15.1787 14.1345 14.9394L14.954 11.5436C15.8832 11.7829 18.8755 12.2296 18.3922 14.2336Z" fill="#FF9900"></path>
    </g>
    <defs>
    <clipPath id="svg81889009_1815_clip0_630_2676">
    <rect width="30" height="31" fill="white" transform="translate(0.029541 0.970703)"></rect>
    </clipPath>
    </defs>
</svg>