<svg width="39" height="38" viewBox="0 0 39 38" fill="none" xmlns="http://www.w3.org/2000/svg" id="svg-384119554_6346">
    <g clip-path="url(#svg-384119554_6346_clip0_630_2622)">
    <path d="M3.87579 8.23413C2.65054 10.0125 1.71939 12.0093 1.15479 14.1555H9.79752L3.87579 8.23413Z" fill="#29337A"></path>
    <path d="M14.2083 0.760498C12.0192 1.39803 9.99182 2.41534 8.20654 3.74222L14.2083 9.74402V0.760498Z" fill="#29337A"></path>
    <path d="M8.65308 34.5746C10.3276 35.7464 12.1985 36.6536 14.2085 37.2389V29.02L8.65308 34.5746Z" fill="#29337A"></path>
    <path d="M1.3728 24.6101C2.00103 26.645 2.9637 28.5329 4.194 30.2123L9.79621 24.6101H1.3728Z" fill="#29337A"></path>
    <path d="M4.18923 7.79321C4.08302 7.93842 3.97833 8.08571 3.87572 8.23452L9.79746 14.1559H1.15472C1.01465 14.689 0.900334 15.2324 0.806152 15.7832H12.1798L4.18923 7.79321Z" fill="white"></path>
    <path d="M8.21216 34.2613C8.35672 34.369 8.50529 34.4716 8.65282 34.5748L14.2083 29.02V37.2388C14.742 37.3949 15.2841 37.5296 15.8355 37.6379V26.6382L8.21216 34.2613Z" fill="white"></path>
    <path d="M0.950684 22.9829C1.06861 23.5343 1.2078 24.0773 1.3725 24.6102H9.79599L4.19378 30.2124C4.80307 31.0448 5.47871 31.826 6.21283 32.5485L15.7783 22.9829H0.950684Z" fill="white"></path>
    <path d="M14.2085 0.760601V9.74413L8.20664 3.74265C7.37922 4.35796 6.60579 5.04106 5.88916 5.78055L15.8354 15.7268V0.361572C15.2843 0.470515 14.7422 0.60553 14.2085 0.760601Z" fill="white"></path>
    <path d="M14.2084 24.5527L14.1514 24.6101H14.2084V24.5527Z" fill="#D32030"></path>
    <path d="M15.7786 22.9828H15.8355V22.9255L15.7786 22.9828Z" fill="#D32030"></path>
    <path d="M23.0905 15.783H23.0356V15.8382L23.0905 15.783Z" fill="#D32030"></path>
    <path d="M14.2646 14.156L14.2085 14.0996V14.156H14.2646Z" fill="#D32030"></path>
    <path d="M15.8354 15.7268V15.783H15.8916L15.8354 15.7268Z" fill="#D32030"></path>
    <path d="M24.6626 33.033V37.2921C26.6987 36.7221 28.5971 35.8236 30.2951 34.653L25.6802 30.0381C25.3114 31.3338 25.1765 32.0036 24.6626 33.033Z" fill="#252F6C"></path>
    <path d="M25.7045 8.70198L30.7425 3.66406C28.9325 2.33861 26.8793 1.32853 24.6626 0.70752V5.08272C25.2551 6.26922 25.3049 7.17076 25.7045 8.70198Z" fill="#252F6C"></path>
    <path d="M34.7871 30.323C36.0559 28.6163 37.0447 26.6897 37.687 24.6101H29.0742L34.7871 30.323Z" fill="#252F6C"></path>
    <path d="M37.9044 14.1559C37.3278 11.9644 36.3687 9.93008 35.1048 8.12378L29.072 14.1559H37.9044Z" fill="#252F6C"></path>
    <path d="M26.8137 23.3048L28.1193 24.6104L34.369 30.86C34.5109 30.6824 34.6518 30.5054 34.7875 30.3233L29.0746 24.6104H37.6873C37.8514 24.0779 37.9909 23.5346 38.1085 22.9832H26.9358C26.9175 23.2139 26.8356 23.0756 26.8137 23.3048Z" fill="#E7E7E7"></path>
    <path d="M25.5071 9.65479L31.1714 3.98985C31.0295 3.87978 30.8873 3.77028 30.7424 3.66406L25.7044 8.70198C25.7567 8.90118 25.4585 9.45078 25.5071 9.65479Z" fill="#E7E7E7"></path>
    <path d="M24.6626 4.73252V0.707095C24.1296 0.55772 23.5869 0.431128 23.0354 0.327881V2.29142C23.6408 2.9478 24.1836 3.77225 24.6626 4.73252Z" fill="#E7E7E7"></path>
    <path d="M26.6856 15.7829H38.2533C38.1594 15.2321 38.0448 14.689 37.9048 14.1556H29.0724L35.1051 8.12351C34.512 7.27628 33.8529 6.4795 33.1329 5.74121L26.3379 12.5356C26.5209 13.7681 26.6028 14.4838 26.6856 15.7829Z" fill="#E7E7E7"></path>
    <path d="M25.4058 29.7629L30.2955 34.6532C31.1088 34.093 31.8747 33.4696 32.5893 32.7929L26.1576 26.3608C25.9523 27.5504 25.7088 28.6993 25.4058 29.7629Z" fill="#E7E7E7"></path>
    <path d="M23.0356 35.4828V37.6713C23.587 37.5687 24.1295 37.4415 24.6629 37.2921V33.033C24.1835 33.9936 23.6408 34.8273 23.0356 35.4828Z" fill="#E7E7E7"></path>
    <path d="M26.3378 12.5356L33.1322 5.74117C32.5205 5.11295 31.8647 4.52828 31.1711 3.98975L25.8323 9.32946C26.0696 10.3213 26.1773 11.4565 26.3378 12.5356Z" fill="#D71F28"></path>
    <path d="M18.5813 0.0234251C18.8979 0.00810252 19.2135 0 19.5293 0C19.2116 0 18.8955 0.00810252 18.5813 0.0234251Z" fill="#D32030"></path>
    <path d="M19.5292 38.0001C19.2133 38.0001 18.8977 37.9914 18.5818 37.9761C18.8959 37.992 19.2115 38.0001 19.5292 38.0001Z" fill="#D32030"></path>
    <path d="M19.5293 38C20.7281 38 21.8987 37.8839 23.0357 37.6711V35.4827C22.0376 36.5645 20.8701 38 19.5293 38Z" fill="#D32030"></path>
    <path d="M38.2528 15.7827H26.8354C26.9866 18.1657 26.9683 20.6161 26.7808 22.9827H38.1082C38.3824 21.6978 38.5294 20.3664 38.5294 19.0002C38.5294 17.9028 38.4316 16.8294 38.2528 15.7827Z" fill="#D71F28"></path>
    <path d="M26.8136 23.3047C26.708 24.4273 26.3402 25.3021 26.1572 26.3611L32.5889 32.7928C33.2253 32.1898 33.8201 31.5448 34.3685 30.8599L28.1192 24.61L26.8136 23.3047Z" fill="#D71F28"></path>
    <path d="M23.0358 2.43268V0.328192C21.8991 0.116083 20.7285 0 19.5293 0C20.8701 0 22.0376 1.35119 23.0358 2.43268Z" fill="#D32030"></path>
    <path d="M24.6626 33.8547C25.1765 32.8251 25.6172 31.6398 25.9862 30.3443L24.6626 29.0208V33.8547Z" fill="#29337A"></path>
    <path d="M26.1509 8.25549C25.7507 6.72428 25.2551 5.33225 24.6626 4.14575V9.74315L26.1509 8.25549Z" fill="#29337A"></path>
    <path d="M27.1823 23.6732C27.2038 23.444 27.2233 23.214 27.2419 22.9829H26.4919L27.1823 23.6732Z" fill="white"></path>
    <path d="M24.6626 9.74317V4.14545C24.1832 3.18518 23.6408 2.36017 23.0354 1.70435V12.1258L26.3033 8.8579C26.2541 8.6539 26.2024 8.45406 26.1509 8.25487L24.6626 9.74317Z" fill="white"></path>
    <path d="M23.0906 15.7828H27.2966C27.2141 14.4838 27.0827 13.2058 26.9 11.9736L23.0906 15.7828Z" fill="white"></path>
    <path d="M23.0356 36.2954C23.6411 35.639 24.1835 34.8145 24.6629 33.8543V29.0204L25.9865 30.344C26.29 29.2799 26.5448 28.1431 26.7506 26.9537L23.0357 23.239L23.0356 36.2954Z" fill="white"></path>
    <path d="M23.0357 36.2954V23.2391L26.7503 26.9539C26.933 25.8946 27.0768 24.796 27.182 23.6731L26.4917 22.9828H27.2417C27.4292 20.6161 27.4475 18.1657 27.2963 15.7828H23.0903L26.8995 11.9737C26.7389 10.8943 26.5404 9.85025 26.3031 8.85814L23.0358 12.126V1.70458C22.0375 0.622771 20.87 0 19.5292 0C19.2133 0 18.8977 0.00810252 18.5812 0.0234251C17.6467 0.0701951 16.7302 0.185155 15.8356 0.361565V15.7267L5.88907 5.78046C5.27794 6.4111 4.70948 7.08304 4.18923 7.79318L10.552 14.1559L12.1798 15.7831H0.80615C0.627975 16.8295 0.529541 17.9029 0.529541 19.0003C0.529541 20.3668 0.677151 21.6979 0.950711 22.9828H15.7786L6.2131 32.5484C6.83948 33.1637 7.50637 33.7367 8.21233 34.261L15.8354 26.638V37.6379C16.7299 37.8143 17.647 37.9292 18.5815 37.976C18.8975 37.9913 19.2131 38 19.529 38C20.87 38 22.0376 37.3772 23.0357 36.2954Z" fill="#E51D35"></path>
    </g>
    <defs>
    <clipPath id="svg-384119554_6346_clip0_630_2622">
    <rect width="38" height="38" fill="white" transform="translate(0.529541)"></rect>
    </clipPath>
    </defs>
</svg>