<svg width="41" height="41" viewBox="0 0 41 41" fill="none" xmlns="http://www.w3.org/2000/svg" id="svg2114273752_599">
    <path d="M1.77954 20.5C1.77954 28.6875 7.02954 35.625 14.2795 38.1875V2.8125C7.02954 5.375 1.77954 12.3125 1.77954 20.5Z" fill="#0B9944"></path>
    <path d="M39.2795 20.5C39.2795 12.3125 34.092 5.375 26.7795 2.8125V38.1875C34.092 35.625 39.2795 28.6875 39.2795 20.5Z" fill="#0B9944"></path>
    <path d="M14.2795 38.1875C16.217 38.875 18.342 39.25 20.5295 39.25C22.717 39.25 24.842 38.875 26.7795 38.1875V2.8125C24.842 2.125 22.717 1.75 20.5295 1.75C18.342 1.75 16.217 2.125 14.2795 2.8125V38.1875Z" fill="white"></path>
</svg>