<svg width="39" height="39" viewBox="0 0 39 39" fill="none" xmlns="http://www.w3.org/2000/svg" id="svg708398326_8928">
    <g clip-path="url(#svg708398326_8928_clip0_630_2557)">
    <path d="M37.9454 21.2771H0.115234V21.2777H37.9454V21.2771Z" fill="#C42126"></path>
    <path d="M35.9734 10.905H2.08545V10.9056H35.9734V10.905Z" fill="#C42126"></path>
    <path d="M37.3197 14.3618H0.737793V14.3624H37.3197V14.3618Z" fill="#C42126"></path>
    <path d="M8.19554 35.1052H29.8635L29.8646 35.104H8.19434L8.19554 35.1052Z" fill="#C42126"></path>
    <path d="M19.0294 0.5C18.6562 0.5 18.286 0.513478 17.9185 0.534496H20.1406C19.7727 0.513478 19.4026 0.5 19.0294 0.5Z" fill="#C42126"></path>
    <path d="M37.9501 17.8193H0.10791V17.8199H37.9501V17.8193Z" fill="#C42126"></path>
    <path d="M24.6452 7.44805H33.7179C32.6402 6.13615 31.3878 4.97484 30.0002 3.9917H23.1875C23.7512 4.9835 24.236 6.1538 24.6452 7.44805Z" fill="white"></path>
    <path d="M23.1875 3.99165H30.0002C27.1838 1.99577 23.8025 0.745893 20.1407 0.534424H19.5557C21.2792 0.751348 22.0708 2.0269 23.1875 3.99165Z" fill="#DC3027"></path>
    <path d="M37.3212 14.3621C36.9834 13.1573 36.5304 12.0014 35.9736 10.9058H25.5359C25.7474 12.0155 25.9142 13.1746 26.0378 14.3621H37.3212Z" fill="white"></path>
    <path d="M24.9487 10.9052H35.9731C35.3449 9.66947 34.5902 8.50992 33.7177 7.44824H24.0874C24.427 8.52316 24.7153 9.68271 24.9487 10.9052Z" fill="#DC3027"></path>
    <path d="M26.4373 21.2762H37.9438C37.9984 20.6915 38.0293 20.099 38.0293 19.5002C38.0293 18.9335 37.9996 18.374 37.951 17.8196H26.44C26.4774 18.9692 26.4768 20.1272 26.4373 21.2762Z" fill="white"></path>
    <path d="M37.9514 17.8191C37.8473 16.632 37.6334 15.477 37.3211 14.3628H25.553C25.6711 15.4947 25.7492 16.6527 25.7873 17.8191H37.9514Z" fill="#DC3027"></path>
    <path d="M25.3372 28.1903H35.9236C36.4882 27.0959 36.9484 25.9391 37.2934 24.7334H25.849C25.723 25.9226 25.5519 27.0815 25.3372 28.1903Z" fill="white"></path>
    <path d="M37.2939 24.7332C37.6128 23.6193 37.8342 22.4643 37.9442 21.2769H26.0789C26.0384 22.4442 25.958 23.6019 25.8374 24.7332H37.2939Z" fill="#DC3027"></path>
    <path d="M29.8649 35.1041C31.2725 34.1248 32.5427 32.9623 33.6374 31.6477H24.7229C24.3062 32.9473 23.8115 34.1158 23.2375 35.1041H29.8649Z" fill="white"></path>
    <path d="M24.3872 31.6473H33.6371C34.5197 30.5869 35.286 29.4273 35.9234 28.1904H25.2593C25.0227 29.4138 24.7314 30.5739 24.3872 31.6473Z" fill="#DC3027"></path>
    <path d="M18.3408 38.4863C18.3024 38.4851 18.264 38.4834 18.2256 38.4822C18.264 38.4833 18.3024 38.4851 18.3408 38.4863Z" fill="#DC3027"></path>
    <path d="M19.0293 38.5C23.0574 38.5 26.7897 37.2427 29.8636 35.1052H22.9872C21.7668 37.2079 20.9616 38.5 19.0293 38.5Z" fill="#DC3027"></path>
    <path d="M19.0293 38.5C18.7986 38.5 18.5694 38.4947 18.3408 38.4866C18.5718 38.4944 18.8012 38.5 19.0293 38.5Z" fill="#C42126"></path>
    <path d="M23.8165 3.9917H8.05926C6.67148 4.97484 5.41927 6.13607 4.34131 7.44805H25.2739C24.8647 6.1538 24.3802 4.9835 23.8165 3.9917Z" fill="#F3F4F5"></path>
    <path d="M8.05933 3.99165H23.8166C22.6997 2.0269 21.2792 0.751348 19.5557 0.534424H17.9185C14.2567 0.745893 10.8754 1.99577 8.05933 3.99165Z" fill="#E73625"></path>
    <path d="M0.738281 14.3621H26.6368C26.5132 13.1744 26.3464 12.0155 26.1349 10.9058H2.08587C1.52904 12.0015 1.0761 13.1573 0.738281 14.3621Z" fill="#F3F4F5"></path>
    <path d="M4.34126 7.448C3.46947 8.50968 2.71409 9.66914 2.08618 10.9049H26.1349C25.9018 9.6827 25.6135 8.52323 25.2739 7.448H4.34126Z" fill="#E73625"></path>
    <path d="M0.0297852 19.5002C0.0297852 20.099 0.0609921 20.6915 0.115303 21.2762H26.8691C26.9087 20.1271 26.9093 18.9694 26.8718 17.8198H0.108083C0.0594678 18.374 0.0297852 18.9335 0.0297852 19.5002Z" fill="#F3F4F5"></path>
    <path d="M0.10791 17.8191H26.8713C26.8332 16.6525 26.7549 15.4947 26.637 14.3628H0.737905C0.425595 15.4773 0.211719 16.632 0.10791 17.8191Z" fill="#E73625"></path>
    <path d="M26.6276 24.7332H0.765625C1.11067 25.9392 1.57115 27.0957 2.13544 28.1901H26.1158C26.3306 27.0815 26.5012 25.9226 26.6276 24.7332Z" fill="#F3F4F5"></path>
    <path d="M0.765606 24.7332H26.6276C26.7479 23.6019 26.8285 22.4439 26.869 21.2769H0.115234C0.225301 22.4646 0.447039 23.6193 0.765606 24.7332Z" fill="#E73625"></path>
    <path d="M8.19463 35.1041H23.7587C24.3326 34.1155 24.8276 32.9473 25.244 31.6477H4.42212C5.51685 32.9623 6.78671 34.1248 8.19463 35.1041Z" fill="#F3F4F5"></path>
    <path d="M2.13574 28.1904C2.77328 29.4273 3.53941 30.5869 4.42203 31.6473H25.2439C25.5878 30.5739 25.8791 29.4138 26.1157 28.1904H2.13574Z" fill="#E73625"></path>
    <path d="M18.2257 38.4824C18.2642 38.4836 18.3025 38.4854 18.3409 38.4866C18.5696 38.4947 18.7988 38.5 19.0294 38.5C20.9618 38.5 22.5373 37.208 23.758 35.1052H8.1958C11.0635 37.0997 14.5058 38.3273 18.2257 38.4824Z" fill="#E73625"></path>
    <path d="M18.6366 0.509766C8.90011 0.707837 0.96441 8.2255 0.110352 17.7881H18.6369V0.509766H18.6366Z" fill="#283991"></path>
    <path d="M3.83134 11.2649L4.12079 12.1562H5.0586L4.29993 12.7073L4.58969 13.5992L3.83134 13.0478L3.07323 13.5992L3.36244 12.7073L2.604 12.1562H3.54182L3.83134 11.2649Z" fill="white"></path>
    <path d="M3.83134 14.4138L4.12079 15.3057H5.0586L4.29993 15.8568L4.58969 16.7487L3.83134 16.1973L3.07323 16.7487L3.36244 15.8568L2.604 15.3057H3.54182L3.83134 14.4138Z" fill="white"></path>
    <path d="M6.98059 6.54053L7.27012 7.43213H8.20761L7.44917 7.98359L7.7387 8.87487L6.98059 8.32405L6.22216 8.87487L6.51168 7.98359L5.75293 7.43213H6.69074L6.98059 6.54053Z" fill="white"></path>
    <path d="M6.98059 9.68994L7.27012 10.5815H8.20761L7.44917 11.1324L7.7387 12.0243L6.98059 11.4735L6.22216 12.0243L6.51168 11.1324L5.75293 10.5815H6.69074L6.98059 9.68994Z" fill="white"></path>
    <path d="M6.98059 12.8394L7.27012 13.7313H8.20761L7.44917 14.2818L7.7387 15.1737L6.98059 14.6223L6.22216 15.1737L6.51168 14.2818L5.75293 13.7313H6.69074L6.98059 12.8394Z" fill="white"></path>
    <path d="M1.44021 15.1736L1.15045 14.2816L1.90888 13.7308H0.971628L0.95061 13.6658C0.847683 13.9841 0.754704 14.3063 0.668945 14.6321L0.682182 14.6222L1.44021 15.1736Z" fill="white"></path>
    <path d="M3.07327 10.4498L3.83138 9.89844L4.58981 10.4498L4.30004 9.55789L5.05848 9.00652H4.12066L3.83114 8.11523L3.54161 9.00652H3.19601C3.13183 9.10375 3.06974 9.20154 3.00732 9.30021L3.36255 9.55789L3.07327 10.4498Z" fill="white"></path>
    <path d="M6.98075 5.17456L7.73887 5.72537L7.44934 4.83409L8.20745 4.28271H7.66594C7.20602 4.62655 6.76231 4.99045 6.336 5.3744L6.22168 5.72537L6.98075 5.17456Z" fill="white"></path>
    <path d="M9.37158 4.15089L10.13 3.59951L10.8881 4.15089L10.5986 3.25896L11.3567 2.70815H10.4192L10.3799 2.58813C10.0622 2.75043 9.74783 2.9193 9.44057 3.099L9.66079 3.25888L9.37158 4.15089Z" fill="white"></path>
    <path d="M10.1302 4.96606L10.4197 5.85711H11.3572L10.5988 6.40848L10.8883 7.30041L10.1302 6.74895L9.37174 7.30041L9.66126 6.40848L8.90259 5.85711H9.84032L10.1302 4.96606Z" fill="white"></path>
    <path d="M10.1302 8.11548L10.4197 9.00652H11.3572L10.5988 9.5579L10.8883 10.4498L10.1302 9.89836L9.37174 10.4498L9.66126 9.5579L8.90259 9.00652H9.84032L10.1302 8.11548Z" fill="white"></path>
    <path d="M10.1302 11.2649L10.4197 12.1562H11.3572L10.5988 12.7073L10.8883 13.5992L10.1302 13.0478L9.37174 13.5992L9.66126 12.7073L8.90259 12.1562H9.84032L10.1302 11.2649Z" fill="white"></path>
    <path d="M10.1302 14.4138L10.4197 15.3057H11.3572L10.5988 15.8568L10.8883 16.7487L10.1302 16.1973L9.37174 16.7487L9.66126 15.8568L8.90259 15.3057H9.84032L10.1302 14.4138Z" fill="white"></path>
    <path d="M13.2796 3.39111L13.5691 4.28272H14.5066L13.7485 4.83417L14.0377 5.72546L13.2796 5.17464L12.5209 5.72546L12.8107 4.83417L12.052 4.28272H12.9897L13.2796 3.39111Z" fill="white"></path>
    <path d="M13.2796 6.54053L13.5691 7.43213H14.5066L13.7485 7.98359L14.0377 8.87487L13.2796 8.32405L12.5209 8.87487L12.8107 7.98359L12.052 7.43213H12.9897L13.2796 6.54053Z" fill="white"></path>
    <path d="M13.2796 9.68994L13.5691 10.5815H14.5066L13.7485 11.1324L14.0377 12.0243L13.2796 11.4735L12.5209 12.0243L12.8107 11.1324L12.052 10.5815H12.9897L13.2796 9.68994Z" fill="white"></path>
    <path d="M13.2796 12.8394L13.5691 13.7313H14.5066L13.7485 14.2818L14.0377 15.1737L13.2796 14.6223L12.5209 15.1737L12.8107 14.2818L12.052 13.7313H12.9897L13.2796 12.8394Z" fill="white"></path>
    <path d="M16.429 1.81665L16.7185 2.70825H17.656L16.8976 3.25907L17.1871 4.15099L16.429 3.59954L15.6703 4.15099L15.9601 3.25907L15.2014 2.70825H16.1389L16.429 1.81665Z" fill="white"></path>
    <path d="M16.429 4.96606L16.7185 5.85711H17.656L16.8976 6.40848L17.1871 7.30041L16.429 6.74895L15.6703 7.30041L15.9601 6.40848L15.2014 5.85711H16.1389L16.429 4.96606Z" fill="white"></path>
    <path d="M16.429 8.11548L16.7185 9.00652H17.656L16.8976 9.5579L17.1871 10.4498L16.429 9.89836L15.6703 10.4498L15.9601 9.5579L15.2014 9.00652H16.1389L16.429 8.11548Z" fill="white"></path>
    <path d="M16.429 11.2649L16.7185 12.1562H17.656L16.8976 12.7073L17.1871 13.5992L16.429 13.0478L15.6703 13.5992L15.9601 12.7073L15.2014 12.1562H16.1389L16.429 11.2649Z" fill="white"></path>
    <path d="M16.429 14.4138L16.7185 15.3057H17.656L16.8976 15.8568L17.1871 16.7487L16.429 16.1973L15.6703 16.7487L15.9601 15.8568L15.2014 15.3057H16.1389L16.429 14.4138Z" fill="white"></path>
    </g>
    <defs>
    <clipPath id="svg708398326_8928_clip0_630_2557">
    <rect width="38" height="38" fill="white" transform="translate(0.029541 0.5)"></rect>
    </clipPath>
    </defs>
</svg>